<?xml version="1.0" encoding="UTF-8"?>
<svg version="1.1" xmlns="http://www.w3.org/2000/svg" width="545" height="528">
<path d="M0 0 C179.85 0 359.7 0 545 0 C545 174.24 545 348.48 545 528 C365.15 528 185.3 528 0 528 C0 353.76 0 179.52 0 0 Z " fill="#FFFFFF" transform="translate(0,0)"/>
<path d="M0 0 C5.40230921 0.00231748 10.80461528 0.00255683 16.20692486 0.00148464 C17.37851918 0.00125479 17.37851918 0.00125479 18.57378209 0.0010203 C20.16252567 0.00070044 21.75126926 0.00037622 23.34001285 0.00004771 C38.09467018 -0.00277592 52.84932121 0.00043028 67.6039775 0.00584807 C80.15079846 0.01031323 92.69761016 0.00953641 105.24443096 0.00492931 C119.96117883 -0.00047236 134.67792123 -0.00250153 149.39466995 0.00054158 C150.97623295 0.00085999 152.55779594 0.00117436 154.13935894 0.00148464 C155.30535193 0.00171605 155.30535193 0.00171605 156.49490035 0.00195214 C161.86481161 0.0028007 167.23471923 0.00136626 172.60462993 -0.00099491 C227.55324257 -0.02257454 227.55324257 -0.02257454 251.55084842 0.4077158 C253.37910427 0.43941923 255.20744353 0.46669286 257.03583759 0.48904658 C259.48863442 0.52098574 261.94029058 0.57159864 264.39262432 0.62825084 C265.43595582 0.63721036 265.43595582 0.63721036 266.50036472 0.64635087 C273.95560521 0.86806977 281.14739046 3.93156359 286.2981419 9.38530041 C294.49450382 21.40663122 291.09861267 35.67486945 288.8606419 49.26030041 C288.62799588 50.72017769 288.39639871 52.18022249 288.16581768 53.64042736 C287.71245238 56.50645483 287.25432803 59.3716559 286.7927708 62.23637462 C286.12437122 66.44218285 285.50516154 70.6531008 284.90068096 74.8684547 C283.83689022 82.27447152 282.48986666 89.53412299 280.84892315 96.83842541 C280.17575112 100.12257103 279.70823126 103.3710942 279.2981419 106.69780041 C278.32825587 114.4897661 277.01118659 122.21123179 275.6731419 129.94780041 C275.45931865 131.1879591 275.24549541 132.42811779 275.02519268 133.70585705 C274.10310054 139.00059966 273.16007902 144.28451541 272.0793919 149.54936291 C271.25695292 153.58269945 270.66709419 157.60946311 270.1731419 161.69780041 C269.56470361 166.45597796 268.79977479 171.04554416 267.6731419 175.70170666 C266.73659917 180.26003571 266.25962963 184.89238519 265.6731419 189.50639416 C265.16198212 193.21629598 264.45200863 196.83176057 263.66923565 200.49076916 C263.0491733 203.79614088 262.64814133 207.11030497 262.2356419 210.44780041 C261.47506003 216.40668986 260.31864268 222.13012556 258.88798565 227.95951916 C258.16805166 231.15791439 257.67935473 234.3254507 257.2356419 237.57280041 C254.18658804 258.16641007 254.18658804 258.16641007 247.1731419 264.13530041 C237.03723855 270.84475844 228.25819786 271.28594572 216.42746013 271.26901317 C215.26048998 271.27127873 214.09351983 271.27354429 212.89118695 271.2758785 C209.66963762 271.28109587 206.44812358 271.28186644 203.22657138 271.28068412 C199.74521078 271.28047936 196.26385838 271.28600604 192.78250164 271.29074169 C185.96860728 271.29903227 179.15472158 271.3017958 172.3408226 271.30235407 C166.80001173 271.30282996 161.25920371 271.30488833 155.71839374 271.30805469 C139.99484666 271.31685669 124.27130638 271.32147475 108.54775681 271.32072422 C107.70088926 271.32068426 106.85402171 271.32064431 105.98149151 271.32060314 C105.13358511 271.32056226 104.28567871 271.32052138 103.41207818 271.32047926 C89.67217097 271.32007285 75.93229118 271.32964228 62.19239189 271.34374151 C48.07031859 271.35811809 33.94825864 271.36501099 19.82617784 271.36414773 C11.90333489 271.36381622 3.9805207 271.36654324 -3.94231564 271.37732578 C-10.68789279 271.38644763 -17.43342816 271.38859219 -24.17900882 271.38181636 C-27.61733383 271.37855973 -31.05557876 271.37846332 -34.49389607 271.38716961 C-38.22941028 271.39490188 -41.96471561 271.39023632 -45.70022541 271.38253856 C-46.77553841 271.38768213 -47.85085141 271.39282569 -48.95874965 271.39812512 C-57.61982833 271.35881424 -67.0847092 271.26095659 -74.2643581 265.88530041 C-75.04681904 265.32326916 -75.82927998 264.76123791 -76.63545185 264.18217541 C-81.39095125 259.74031857 -83.40266851 255.14098128 -84.8893581 248.88530041 C-85.13468281 247.85844127 -85.13468281 247.85844127 -85.38496357 246.81083751 C-86.96752979 239.96874758 -88.08209775 233.05365397 -89.17451435 226.11967541 C-89.63940708 223.19672142 -90.19153203 220.32565676 -90.8893581 217.44780041 C-92.11880932 212.28613745 -92.65789846 207.02571759 -93.3268581 201.76811291 C-93.83990279 198.04052259 -94.54365598 194.40252288 -95.3268581 190.72514416 C-96.17229645 186.34603773 -96.71825207 181.92354266 -97.3268581 177.50639416 C-97.7421944 174.70611894 -98.23751127 171.96496794 -98.8268581 169.19780041 C-99.68391792 165.13174917 -100.24684555 161.07079297 -100.7643581 156.94780041 C-101.41442755 151.87421153 -102.22698363 146.89387405 -103.2643581 141.88530041 C-104.91173381 133.92847574 -106.16592159 125.93269631 -107.40010029 117.90287853 C-108.21728105 112.60335843 -109.05156358 107.3065951 -109.8893581 102.01030041 C-110.13287007 100.44626476 -110.13287007 100.44626476 -110.38130146 98.85063244 C-111.07432745 94.47425603 -111.79121352 90.14076269 -112.82295185 85.83061291 C-114.01791747 80.66940308 -114.61728142 75.44520829 -115.28681904 70.19438244 C-115.81842582 66.09764282 -116.45704897 62.02182908 -117.1159206 57.94389416 C-117.33741357 56.5526402 -117.5587671 55.16136405 -117.7799831 53.77006603 C-118.11486841 51.66797528 -118.45288016 49.56662585 -118.80049092 47.46659923 C-123.27355319 20.33527152 -123.27355319 20.33527152 -116.8268581 11.13530041 C-116.2493581 10.22780041 -115.6718581 9.32030041 -115.0768581 8.38530041 C-109.37797222 2.68641452 -102.26348375 1.00163893 -94.43696553 0.82356334 C-93.66798498 0.80309971 -92.89900444 0.78263608 -92.10672146 0.76155234 C-89.4862012 0.69498079 -86.86559078 0.63723279 -84.24482685 0.58110119 C-83.31405009 0.56013889 -82.38327332 0.5391766 -81.42429119 0.51757909 C-54.28693606 -0.07847403 -27.14238693 -0.01195757 0 0 Z " fill="#FFCD00" transform="translate(185.8268581032753,178.8646995946765)"/>
<path d="M0 0 C179.85 0 359.7 0 545 0 C545 174.24 545 348.48 545 528 C365.15 528 185.3 528 0 528 C0 353.76 0 179.52 0 0 Z M201 33 C201 33.66 201 34.32 201 35 C200.154375 35.226875 199.30875 35.45375 198.4375 35.6875 C194.49613144 37.19238618 191.11238141 39.12703255 188 42 C188 42.66 188 43.32 188 44 C187.278125 44.226875 186.55625 44.45375 185.8125 44.6875 C182.41431697 46.27331875 180.54769001 48.26123324 178 51 C173 56 173 56 170.640625 58.32421875 C161.45865561 67.62843329 155.0314803 77.48392715 149 89 C148.50628906 89.9075 148.01257813 90.815 147.50390625 91.75 C143.10539164 100.08114294 139.73503604 108.97962106 137.93041992 118.23046875 C137.75484055 119.12531982 137.57926117 120.0201709 137.39836121 120.94213867 C137.26690201 121.62123291 137.13544281 122.30032715 137 123 C136.35536804 123.00364563 135.71073608 123.00729126 135.04656982 123.01104736 C128.23073481 123.05342639 121.41553907 123.12314202 114.60009766 123.20751953 C112.06923878 123.23544404 109.53829732 123.25679755 107.00732422 123.27099609 C85.43773834 123.39913225 66.21691898 124.63451037 47 135 C47 135.66 47 136.32 47 137 C44.525 137.495 44.525 137.495 42 138 C42 138.66 42 139.32 42 140 C41.26394531 140.24878906 40.52789062 140.49757813 39.76953125 140.75390625 C28.14581499 145.98375884 19.98290514 160.8375781 15 172 C14.63003906 172.75410156 14.26007812 173.50820312 13.87890625 174.28515625 C3.79773486 196.40464952 9.20444177 225.64605443 14.06640625 248.4375 C14.87268744 252.25730632 15.46626151 256.05988046 15.9375 259.9375 C16.98584636 268.45301515 18.49517311 276.8800118 19.97021484 285.33056641 C21.53884372 294.31847856 23.06792056 303.31197796 24.5625 312.3125 C24.76891113 313.55362549 24.97532227 314.79475098 25.18798828 316.07348633 C26.17357895 322.00536874 27.15494149 327.93793419 28.1328125 333.87109375 C28.31126709 334.95028076 28.48972168 336.02946777 28.67358398 337.14135742 C29.00270066 339.1321615 29.33046413 341.12319005 29.65649414 343.11450195 C30.38534981 347.51973891 31.16774061 351.90255538 32.0625 356.27734375 C32.80964048 359.94787392 33.38198975 363.58929596 33.8125 367.3125 C34.96064272 376.28806015 36.54995186 385.1810567 38.11035156 394.09277344 C39.33044452 401.07371771 40.49667935 408.05649556 41.5625 415.0625 C44.81899545 435.92087568 48.57307086 456.37972734 61 474 C61.99 474.33 62.98 474.66 64 475 C64.226875 475.70125 64.45375 476.4025 64.6875 477.125 C69.44592798 487.54822319 84.70087143 495.30497218 94.8125 499.5625 C111.85543529 505.73097718 129.40312861 505.44652832 147.31332409 505.40683305 C150.96377246 505.40204455 154.61417102 505.41466071 158.26460266 505.42485046 C165.39199337 505.44193421 172.51929553 505.4429003 179.64670137 505.43763756 C185.44749245 505.43357491 191.24825761 505.4350641 197.04904747 505.44038582 C197.87870457 505.44113424 198.70836166 505.44188266 199.56315988 505.44265376 C201.24930591 505.44418545 202.93545194 505.44572379 204.62159797 505.44726873 C220.38841351 505.46095615 236.15517926 505.4555827 251.92199364 505.44408352 C266.30119985 505.43415587 280.6802773 505.44709042 295.05946366 505.47101771 C309.87574084 505.49548383 324.69195823 505.50499815 339.50825518 505.49836498 C347.80576651 505.49488929 356.10317893 505.49699476 364.40067482 505.51461601 C371.46416891 505.52943246 378.52749445 505.52985157 385.59098557 505.5125451 C389.18461561 505.5041094 392.77794579 505.50169968 396.37155914 505.51719666 C420.41857071 505.61340277 443.98370394 504.84029183 464 490 C465.17755859 489.14535156 465.17755859 489.14535156 466.37890625 488.2734375 C470.89479072 484.89582374 474.69439732 481.58519082 478 477 C478 476.34 478 475.68 478 475 C478.99 474.67 479.98 474.34 481 474 C482.59451902 471.62613741 484.00488709 469.31183631 485.375 466.8125 C485.77493164 466.08345459 486.17486328 465.35440918 486.58691406 464.60327148 C495.96845036 447.09195953 499.06918972 427.37546892 501.60546875 407.84375 C501.96994475 405.21663585 502.44849893 402.65581799 503 400.0625 C503.79122873 396.28151386 504.33881474 392.52125176 504.8125 388.6875 C505.82070148 380.81546283 507.14890949 373.00735899 508.5 365.1875 C508.71374268 363.94766357 508.92748535 362.70782715 509.14770508 361.43041992 C510.06995902 356.13536733 511.01299578 350.8511119 512.09375 345.5859375 C512.91618898 341.55260095 513.50604771 337.52583729 514 333.4375 C514.5155312 329.40588492 515.04398491 325.4510311 516 321.5 C516.93031413 317.64893221 517.44512917 313.80582826 517.9375 309.875 C518.75807954 303.40728254 519.94824053 297.08816358 521.27734375 290.703125 C522.21682731 285.88890654 522.87745799 281.05466988 523.53515625 276.1953125 C523.93412532 273.45281925 524.42328399 270.77172405 525 268.0625 C525.85705982 263.99644877 526.41998745 259.93549256 526.9375 255.8125 C527.57494759 250.78318908 528.41264217 245.8879834 529.5 240.9375 C534.9558261 214.59998415 536.59329779 185.01050786 521.73828125 161.48046875 C517.09536673 154.85518624 511.94039681 148.50549255 506 143 C505.34 143 504.68 143 504 143 C504 142.34 504 141.68 504 141 C502.68 140.67 501.36 140.34 500 140 C500 139.34 500 138.68 500 138 C498.35 137.67 496.7 137.34 495 137 C495 136.34 495 135.68 495 135 C474.61866565 124.00643177 454.04997919 123.37790595 431.25 123.25 C428.69138673 123.22176926 426.13279169 123.19183226 423.57421875 123.16015625 C417.38288431 123.08714837 411.19165998 123.03501611 405 123 C404.8153418 122.14784912 404.63068359 121.29569824 404.44042969 120.41772461 C400.47242397 102.59069001 393.05848228 85.61140831 382 71 C381.20519094 69.91445638 380.41095393 68.82849375 379.6171875 67.7421875 C375.43452508 62.08865441 371.2423556 56.87672049 365.7421875 52.42578125 C364 51 364 51 361.3125 48.1875 C358.92360043 45.92773013 357.01532818 45.17262763 354 44 C353.67 43.01 353.34 42.02 353 41 C350.75443323 39.31557235 350.75443323 39.31557235 348.0625 37.8125 C347.16660156 37.28269531 346.27070313 36.75289062 345.34765625 36.20703125 C343.14351611 34.8475841 343.14351611 34.8475841 341 35 C341 34.34 341 33.68 341 33 C293.97730102 9.54078211 248.15496412 9.74711406 201 33 Z " fill="#FFCD00" transform="translate(0,0)"/>
<path d="M0 0 C11.0891652 9.44054126 17.4408556 21.32256679 22 35 C22.03954234 37.33299825 22.04401732 39.66708189 22 42 C14.13505199 42.20300798 6.27078021 42.3430087 -1.59619141 42.43945312 C-4.2725693 42.47514898 -6.94552625 42.534203 -9.62158203 42.60351562 C-13.46951578 42.70067845 -17.31512507 42.74595737 -21.1640625 42.78125 C-22.95500839 42.84318542 -22.95500839 42.84318542 -24.78213501 42.90637207 C-32.95110456 42.9107765 -32.95110456 42.9107765 -36.01116943 40.25366211 C-37.59521484 38.10742188 -37.59521484 38.10742188 -38.8152771 35.9666748 C-40.4891173 33.18805092 -42.38431354 31.90371605 -45.32421875 30.625 C-49.0949374 29.7442482 -52.76142336 29.56925007 -56.625 29.5 C-57.35372314 29.48130859 -58.08244629 29.46261719 -58.83325195 29.44335938 C-64.32966976 29.50847242 -67.99377597 30.99377597 -72 35 C-72.45817948 38.97088884 -72.54841645 41.1982791 -70.2578125 44.546875 C-66.00819321 48.48920259 -59.99090922 48.93815058 -54.5 50 C-52.05191152 50.51220033 -49.60399643 51.02523002 -47.15625 51.5390625 C-44.77090603 52.02639765 -42.38549339 52.51339683 -40 53 C-22.83495832 56.55656992 -4.09851948 60.53621054 9 73 C9.60585938 73.495 10.21171875 73.99 10.8359375 74.5 C18.92291259 81.56286034 24.16890387 93.39219127 25 104 C26.16229234 121.37903782 22.27116139 136.75784627 10.75 150.25 C-3.40447774 165.2105954 -23.85440285 172.51033169 -44.171875 173.37109375 C-63.22603839 173.72413542 -82.8556427 172.11205472 -100 163 C-100.89074219 162.53335938 -101.78148437 162.06671875 -102.69921875 161.5859375 C-119.12095725 152.07491634 -130.11162113 137.25571578 -135 119 C-135.03441464 117.00029611 -135.03948898 114.99961012 -135 113 C-127.26370674 112.81442364 -119.52793697 112.6723888 -111.78997517 112.58550262 C-108.19650337 112.54379363 -104.60455673 112.48725755 -101.01196289 112.39648438 C-97.54292594 112.30938432 -94.07535276 112.26169357 -90.60530663 112.24098206 C-88.64118977 112.21906147 -86.67766024 112.15663195 -84.71443176 112.09362793 C-75.97046932 112.08922818 -75.97046932 112.08922818 -73.11578369 114.76831055 C-71.85068257 116.80160507 -70.92823509 118.79881471 -70 121 C-65.27366948 125.59238593 -59.91575759 126.36321294 -53.5 126.5625 C-47.41633671 126.35461603 -42.04334129 125.5989476 -37 122 C-35.03944291 119.05916436 -34.68785455 118.31872048 -34.625 115 C-34.59664063 114.319375 -34.56828125 113.63875 -34.5390625 112.9375 C-34.86083476 110.89663476 -34.86083476 110.89663476 -36.4453125 109.3984375 C-40.20430132 107.34076472 -44.08563827 106.54815516 -48.25 105.625 C-49.1673291 105.41367432 -50.0846582 105.20234863 -51.02978516 104.98461914 C-58.12415457 103.36900462 -65.24804074 101.90104679 -72.375 100.4375 C-76.2518284 99.63350127 -80.12681961 98.82138993 -84 98 C-84.75071777 97.84208984 -85.50143555 97.68417969 -86.27490234 97.52148438 C-101.35788119 94.25835719 -115.66199686 87.85876222 -124.546875 74.7109375 C-132.29078221 61.45519046 -134.06182303 46.29879023 -131.31640625 31.25390625 C-126.23489708 13.69001771 -115.815981 1.58720701 -100.26171875 -7.62109375 C-70.13188729 -23.97029864 -26.99782103 -21.13210739 0 0 Z " fill="#FFFEFD" transform="translate(326,238)"/>
<path d="M0 0 C1.19140625 2.15234375 1.19140625 2.15234375 2 4 C3.32520503 4.68268138 4.65812182 5.3507041 6 6 C6.33 6.99 6.66 7.98 7 9 C7.5878125 9.26554687 8.175625 9.53109375 8.78125 9.8046875 C11.95700201 11.51556798 13.55150835 14.19047478 15.5 17.125 C15.89437256 17.70886475 16.28874512 18.29272949 16.69506836 18.89428711 C24 29.86305824 24 29.86305824 24 36 C-25.5 36 -75 36 -126 36 C-124.03311976 26.16559882 -118.54148744 17.54050121 -112 10 C-111.01 9.67 -110.02 9.34 -109 9 C-108.67 8.34 -108.34 7.68 -108 7 C-107 5 -107 5 -104 4 C-103.7525 3.4225 -103.505 2.845 -103.25 2.25 C-98.27162485 -6.71107527 -83.35526366 -11.48508513 -73.93481445 -14.22070312 C-48.11053835 -21.34317508 -21.50676818 -16.51024628 0 0 Z " fill="#FFCD00" transform="translate(322,88)"/>
</svg>
